<?xml version="1.0" standalone="no"?>
<!DOCTYPE svg PUBLIC "-//W3C//DTD SVG 20010904//EN"
 "http://www.w3.org/TR/2001/REC-SVG-20010904/DTD/svg10.dtd">
<svg version="1.0" xmlns="http://www.w3.org/2000/svg"
 width="32.000000pt" height="32.000000pt" viewBox="0 0 32.000000 32.000000"
 preserveAspectRatio="xMidYMid meet">

<g transform="translate(0.000000,32.000000) scale(0.100000,-0.100000)"
fill="#000000" stroke="none">
<path d="M30 213 c0 -125 14 -165 70 -195 44 -23 76 -23 120 0 56 30 70 70 70
195 l0 107 -130 0 -130 0 0 -107z m167 73 c2 -2 5 -10 7 -18 1 -7 5 -18 9 -24
4 -7 0 -14 -7 -17 -9 -4 -14 -16 -12 -31 3 -31 31 -74 42 -64 4 5 0 16 -9 26
-23 25 -21 49 3 62 23 12 27 30 6 30 -9 0 -12 8 -8 25 4 25 25 34 37 15 3 -5
1 -10 -5 -10 -7 0 -8 -6 0 -19 8 -16 5 -25 -15 -47 l-25 -27 21 -23 c18 -19
20 -26 10 -38 -7 -8 -19 -12 -27 -9 -8 3 -14 1 -15 -3 0 -5 -2 -21 -3 -36 -2
-29 -31 -67 -42 -55 -3 3 1 13 10 22 19 20 19 25 1 49 -16 21 -31 16 -23 -6 8
-21 8 -28 1 -25 -5 1 -7 6 -5 11 2 5 -4 6 -13 2 -44 -18 -49 -17 -25 4 l24 22
-24 19 c-23 19 -24 20 -3 14 27 -7 40 11 13 20 -28 9 -40 -2 -40 -36 0 -16 -4
-29 -10 -29 -18 0 -11 56 10 75 28 25 26 53 -5 61 -14 3 -25 12 -25 20 0 11 5
12 20 4 11 -5 29 -14 40 -20 22 -11 50 -4 50 13 0 7 -4 7 -12 -1 -18 -18 -28
-15 -28 8 0 11 -5 20 -10 20 -6 0 -5 6 2 15 12 14 71 15 85 1z m-122 -6 c3 -5
1 -10 -4 -10 -6 0 -11 5 -11 10 0 6 2 10 4 10 3 0 8 -4 11 -10z m-1 -91 c-3
-5 -10 -7 -15 -3 -5 3 -7 10 -3 15 3 5 10 7 15 3 5 -3 7 -10 3 -15z m186 1 c0
-5 -2 -10 -4 -10 -3 0 -8 5 -11 10 -3 6 -1 10 4 10 6 0 11 -4 11 -10z m-10
-110 c0 -5 -4 -10 -9 -10 -6 0 -13 5 -16 10 -3 6 1 10 9 10 9 0 16 -4 16 -10z"/>
</g>
</svg>
